# xmcd
#
# Track frame offsets:
#	150
#	19762
#	36224
#	52951
#	66413
#	81900
#	96487
#	114749
#	136996
#	151433
#	167145
#	180607
#	197444
#	213830
#
# Disc length: 3070 seconds
#
# Revision: 1
# Processed by: cddbd v1.5.2PL0 Copyright (c) Steve Scherf et al.
# Submitted via: EasyCDDAExtractor 7.0.3.1
#
DISCID=c10bfc0e
DTITLE=Various Artist - Hitz Country 2011 Vol-2
DYEAR=2011
DGENRE=Country
TTITLE0=Brad Paisley - This is Country Music
TTITLE1=Darius Rucker - This
TTITLE2=Kennt Chesney - Live A Little
TTITLE3=Ashton Shepherd - Look It Up
TTITLE4=Troy Olsen - Good Hands
TTITLE5=Trace Adkins - Brown Chicken Brown Cow
TTITLE6=Randy Montana - 1,000 Faces
TTITLE7=Little Big Town - The Reason Why
TTITLE8=Alan Jackson - Ring Of Fire
TTITLE9=Joanna Smith - Georgia Mud
TTITLE10=Miranda Lambert - Heart Like Mine
TTITLE11=David Nail - Let It Rain
TTITLE12=Easton Corbin - Don't Ask Me About a Woman
TTITLE13=Kip Moore - Mary Was the Marrying Kind
EXTD=
EXTT0=
EXTT1=
EXTT2=
EXTT3=
EXTT4=
EXTT5=
EXTT6=
EXTT7=
EXTT8=
EXTT9=
EXTT10=
EXTT11=
EXTT12=
EXTT13=
PLAYORDER=
